<svg viewBox="0 0 1440 590" preserveAspectRatio="none" fill="none" xmlns="http://www.w3.org/2000/svg">
<g opacity="0.25" filter="url(#filter0_f_113_15656)">
<path d="M1433.02 291.383C1432.53 264.484 1432.49 257.26 1432.56 254.531C1431.27 253.483 1429.8 249.666 1429 248.87C1427.63 247.341 1424.55 244.048 1418.11 239.354L1418.11 239.354C1416.73 238.438 1415.87 237.863 1186.36 236.544C956.831 235.225 512.102 233.222 287.311 232.541C62.5208 231.859 57.7457 232.262 54.5128 233.18C49.382 234.638 46.1331 236.027 44.214 237.97C40.6464 241.582 37.9441 245.25 37.0045 259.177C36.2607 270.203 34.9774 290.652 33.8865 302.668C32.7955 314.683 31.9233 318.159 30.6515 326.762C29.3796 335.366 27.7574 348.693 27.0393 363.931C26.321 379.169 26.5015 395.813 26.454 405.191C26.4066 414.569 25.3711 417.337 26.5951 417.717C31.2725 419.17 37.3955 418.516 59.7114 417.985C78.1099 417.548 112.522 416.876 140.505 414.572C168.487 412.268 189.405 408.448 203.005 405.585C216.604 402.722 222.699 400.872 230.319 398.934C237.939 396.996 246.816 395.031 265.482 392.774C284.148 390.518 311.766 388.045 329.122 387.389C346.479 386.733 353.364 387.86 378.5 395.995C403.636 404.13 445.747 418.827 506.977 436.605C568.207 454.382 646.194 474.628 688.911 485.06C731.628 495.493 738.855 496.094 749.794 496.235C760.733 496.375 774.952 496.066 790.613 494.047C806.274 492.029 822.873 488.411 834.808 485.222C846.742 482.033 853.797 479.354 884.184 463.087C914.571 446.819 966.71 417.842 995.1 402.463C1023.49 387.084 1027.99 385.355 1034.64 383.692C1041.29 382.03 1049.82 380.481 1062.33 379.686C1074.84 378.892 1090.84 378.852 1104.97 379.594C1119.11 380.335 1131.02 381.812 1141.77 384.115C1152.52 386.417 1161.82 389.453 1183.71 400.772C1205.59 412.092 1239.05 431.119 1276.41 448.606C1313.77 466.093 1353.63 482.015 1375.59 489.655C1400.76 498.408 1405.59 499.308 1408.21 499.19C1410.44 499.089 1417.75 495.98 1425.05 488.835C1430.89 483.12 1434.28 478.17 1435.62 470.519C1436 468.367 1436.23 466.193 1435.63 430.149C1435.04 394.105 1433.65 326.247 1433.02 291.383Z" fill="white"/>
<path d="M1432.02 217.383C1431.53 190.484 1431.49 183.26 1431.56 180.531C1430.27 179.483 1428.8 175.666 1428 174.87C1426.63 173.341 1423.55 170.048 1417.11 165.354L1417.11 165.354C1415.73 164.438 1414.87 163.863 1185.36 162.544C955.831 161.225 511.102 159.222 286.311 158.541C61.5208 157.859 56.7457 158.262 53.5128 159.18C48.382 160.638 45.1331 162.027 43.214 163.97C39.6464 167.582 36.9441 171.25 36.0045 185.177C35.2607 196.203 33.9774 216.652 32.8865 228.668C31.7955 240.683 30.9233 244.159 29.6515 252.762C28.3796 261.366 26.7574 274.693 26.0393 289.931C25.321 305.169 25.5015 321.813 25.454 331.191C25.4066 340.569 24.3711 343.337 25.5951 343.717C30.2725 345.17 36.3955 344.516 58.7114 343.985C77.1099 343.548 111.522 342.876 139.505 340.572C167.487 338.268 188.405 334.448 202.005 331.585C215.604 328.722 221.699 326.872 229.319 324.934C236.939 322.996 245.816 321.031 264.482 318.774C283.148 316.518 310.766 314.045 328.122 313.389C345.479 312.733 352.364 313.86 377.5 321.995C402.636 330.13 444.747 344.827 505.977 362.605C567.207 380.382 645.194 400.628 687.911 411.06C730.628 421.493 737.855 422.094 748.794 422.235C759.733 422.375 773.952 422.066 789.613 420.047C805.274 418.029 821.873 414.411 833.808 411.222C845.742 408.033 852.797 405.354 883.184 389.087C913.571 372.819 965.71 343.842 994.1 328.463C1022.49 313.084 1026.99 311.355 1033.64 309.692C1040.29 308.03 1048.82 306.481 1061.33 305.686C1073.84 304.892 1089.84 304.852 1103.97 305.594C1118.11 306.335 1130.02 307.812 1140.77 310.115C1151.52 312.417 1160.82 315.453 1182.71 326.772C1204.59 338.092 1238.05 357.119 1275.41 374.606C1312.77 392.093 1352.63 408.015 1374.59 415.655C1399.76 424.408 1404.59 425.308 1407.21 425.19C1409.44 425.089 1416.75 421.98 1424.05 414.835C1429.89 409.12 1433.28 404.17 1434.62 396.519C1435 394.367 1435.23 392.193 1434.63 356.149C1434.04 320.105 1432.65 252.247 1432.02 217.383Z" fill="#FFD600"/>
<path d="M1437.02 146.383C1436.53 119.484 1436.49 112.26 1436.56 109.531C1435.27 108.483 1433.8 104.666 1433 103.87C1431.63 102.341 1428.55 99.0483 1422.11 94.3544L1422.11 94.3542C1420.73 93.4381 1419.87 92.8631 1190.36 91.5441C960.831 90.2249 516.102 88.2223 291.311 87.5407C66.5208 86.8591 61.7457 87.2616 58.5128 88.1801C53.382 89.6378 50.1331 91.0272 48.214 92.97C44.6464 96.5816 41.9441 100.25 41.0045 114.177C40.2607 125.203 38.9774 145.652 37.8865 157.668C36.7955 169.683 35.9233 173.159 34.6515 181.762C33.3796 190.366 31.7574 203.693 31.0393 218.931C30.321 234.169 30.5015 250.813 30.454 260.191C30.4066 269.569 29.3711 272.337 30.5951 272.717C35.2725 274.17 41.3955 273.516 63.7114 272.985C82.1099 272.548 116.522 271.876 144.505 269.572C172.487 267.268 193.405 263.448 207.005 260.585C220.604 257.722 226.699 255.872 234.319 253.934C241.939 251.996 250.816 250.031 269.482 247.774C288.148 245.518 315.766 243.045 333.122 242.389C350.479 241.733 357.364 242.86 382.5 250.995C407.636 259.13 449.747 273.827 510.977 291.605C572.207 309.382 650.194 329.628 692.911 340.06C735.628 350.493 742.855 351.094 753.794 351.235C764.733 351.375 778.952 351.066 794.613 349.047C810.274 347.029 826.873 343.411 838.808 340.222C850.742 337.033 857.797 334.354 888.184 318.087C918.571 301.819 970.71 272.842 999.1 257.463C1027.49 242.084 1031.99 240.355 1038.64 238.692C1045.29 237.03 1053.82 235.481 1066.33 234.686C1078.84 233.892 1094.84 233.852 1108.97 234.594C1123.11 235.335 1135.02 236.812 1145.77 239.115C1156.52 241.417 1165.82 244.453 1187.71 255.772C1209.59 267.092 1243.05 286.119 1280.41 303.606C1317.77 321.093 1357.63 337.015 1379.59 344.655C1404.76 353.408 1409.59 354.308 1412.21 354.19C1414.44 354.089 1421.75 350.98 1429.05 343.835C1434.89 338.12 1438.28 333.17 1439.62 325.519C1440 323.367 1440.23 321.193 1439.63 285.149C1439.04 249.105 1437.65 181.247 1437.02 146.383Z" fill="#FF6930"/>
<path d="M1432.02 71.6051C1431.53 44.6049 1431.49 37.3539 1431.56 34.6142C1430.27 33.5627 1428.8 29.7312 1428 28.9329C1426.63 27.3972 1423.55 24.0926 1417.11 19.3812L1417.11 19.381C1415.73 18.4615 1414.87 17.8843 1185.36 16.5603C955.831 15.2363 511.102 13.2262 286.311 12.542C61.5208 11.8578 56.7457 12.2618 53.5128 13.1838C48.382 14.647 45.1331 16.0415 43.214 17.9916C39.6464 21.6168 36.9441 25.2985 36.0045 39.2784C35.2607 50.345 33.9774 70.8713 32.8865 82.9317C31.7955 94.9921 30.9233 98.4809 29.6515 107.117C28.3796 115.752 26.7574 129.129 26.0393 144.424C25.321 159.719 25.5015 176.426 25.454 185.839C25.4066 195.252 24.3711 198.03 25.5951 198.412C30.2725 199.87 36.3955 199.214 58.7114 198.681C77.1099 198.242 111.522 197.567 139.505 195.255C167.487 192.942 188.405 189.108 202.005 186.234C215.604 183.361 221.699 181.503 229.319 179.558C236.939 177.614 245.816 175.641 264.482 173.376C283.148 171.111 310.766 168.629 328.122 167.97C345.479 167.312 352.364 168.443 377.5 176.609C402.636 184.774 444.747 199.526 505.977 217.37C567.207 235.215 645.194 255.536 687.911 266.007C730.628 276.479 737.855 277.082 748.794 277.223C759.733 277.365 773.952 277.054 789.613 275.028C805.274 273.002 821.873 269.37 833.808 266.169C845.742 262.968 852.797 260.279 883.184 243.951C913.571 227.623 965.71 198.538 994.1 183.101C1022.49 167.664 1026.99 165.928 1033.64 164.26C1040.29 162.591 1048.82 161.036 1061.33 160.239C1073.84 159.441 1089.84 159.401 1103.97 160.146C1118.11 160.89 1130.02 162.373 1140.77 164.684C1151.52 166.995 1160.82 170.042 1182.71 181.404C1204.59 192.766 1238.05 211.864 1275.41 229.417C1312.77 246.969 1352.63 262.951 1374.59 270.619C1399.76 279.405 1404.59 280.308 1407.21 280.19C1409.44 280.089 1416.75 276.968 1424.05 269.796C1429.89 264.06 1433.28 259.092 1434.62 251.412C1435 249.251 1435.23 247.07 1434.63 210.89C1434.04 174.711 1432.65 106.599 1432.02 71.6051Z" fill="#9747FF"/>
<path d="M1437.02 -18.6166C1436.53 -45.516 1436.49 -52.7399 1436.56 -55.4694C1435.27 -56.517 1433.8 -60.3342 1433 -61.1296C1431.63 -62.6595 1428.55 -65.9517 1422.11 -70.6456L1422.11 -70.6458C1420.73 -71.5619 1419.87 -72.1369 1190.36 -73.4559C960.831 -74.7751 516.102 -76.7777 291.311 -77.4593C66.5208 -78.1409 61.7457 -77.7384 58.5128 -76.8199C53.382 -75.3622 50.1331 -73.9728 48.214 -72.03C44.6464 -68.4184 41.9441 -64.7504 41.0045 -50.8226C40.2607 -39.7974 38.9774 -19.3477 37.8865 -7.33225C36.7955 4.68316 35.9233 8.15896 34.6515 16.7624C33.3796 25.3658 31.7574 38.693 31.0393 53.931C30.321 69.169 30.5015 85.8134 30.454 95.1913C30.4066 104.569 29.3711 107.337 30.5951 107.717C35.2725 109.17 41.3955 108.516 63.7114 107.985C82.1099 107.548 116.522 106.876 144.505 104.572C172.487 102.268 193.405 98.448 207.005 95.5849C220.604 92.7218 226.699 90.8715 234.319 88.9339C241.939 86.9964 250.816 85.0311 269.482 82.7745C288.148 80.5179 315.766 78.0449 333.122 77.3891C350.479 76.7333 357.364 77.8605 382.5 85.9951C407.636 94.1298 449.747 108.827 510.977 126.605C572.207 144.382 650.194 164.628 692.911 175.06C735.628 185.493 742.855 186.094 753.794 186.235C764.733 186.375 778.952 186.066 794.613 184.047C810.274 182.029 826.873 178.411 838.808 175.222C850.742 172.033 857.797 169.354 888.184 153.087C918.571 136.819 970.71 107.842 999.1 92.463C1027.49 77.0837 1031.99 75.3546 1038.64 73.6922C1045.29 72.0298 1053.82 70.481 1066.33 69.6863C1078.84 68.8916 1094.84 68.8522 1108.97 69.5936C1123.11 70.3349 1135.02 71.8123 1145.77 74.1147C1156.52 76.4171 1165.82 79.4526 1187.71 90.7723C1209.59 102.092 1243.05 121.119 1280.41 138.606C1317.77 156.093 1357.63 172.015 1379.59 179.655C1404.76 188.408 1409.59 189.308 1412.21 189.19C1414.44 189.089 1421.75 185.98 1429.05 178.835C1434.89 173.12 1438.28 168.17 1439.62 160.519C1440 158.367 1440.23 156.193 1439.63 120.149C1439.04 84.1049 1437.65 16.2466 1437.02 -18.6166Z" fill="#4772FF"/>
</g>
<defs>
<filter id="filter0_f_113_15656" x="-65.0001" y="-167.801" width="1595" height="757" filterUnits="userSpaceOnUse" color-interpolation-filters="sRGB">
<feFlood flood-opacity="0" result="BackgroundImageFix"/>
<feBlend mode="normal" in="SourceGraphic" in2="BackgroundImageFix" result="shape"/>
<feGaussianBlur stdDeviation="45" result="effect1_foregroundBlur_113_15656"/>
</filter>
</defs>
</svg>